<svg width="57" height="57" viewBox="0 0 57 57" fill="none" xmlns="http://www.w3.org/2000/svg">
<path d="M28.5 57C44.2401 57 57 44.2401 57 28.5C57 12.7599 44.2401 0 28.5 0C12.7599 0 0 12.7599 0 28.5C0 44.2401 12.7599 57 28.5 57Z" fill="#D3EAFF"/>
<path d="M18.5197 18.0957C21.471 18.0957 23.8635 15.7032 23.8635 12.752C23.8635 9.80068 21.471 7.4082 18.5197 7.4082C15.5684 7.4082 13.176 9.80068 13.176 12.752C13.176 15.7032 15.5684 18.0957 18.5197 18.0957Z" fill="#AECBE7"/>
<path d="M42.3207 19.9893C44.5125 19.9893 46.2894 18.2124 46.2894 16.0206C46.2894 13.8288 44.5125 12.052 42.3207 12.052C40.1289 12.052 38.3521 13.8288 38.3521 16.0206C38.3521 18.2124 40.1289 19.9893 42.3207 19.9893Z" fill="#AECBE7"/>
<path d="M27.8356 31.9929C29.7648 31.9929 31.3287 30.429 31.3287 28.4999C31.3287 26.5707 29.7648 25.0068 27.8356 25.0068C25.9065 25.0068 24.3426 26.5707 24.3426 28.4999C24.3426 30.429 25.9065 31.9929 27.8356 31.9929Z" fill="#AECBE7"/>
<path d="M31.7722 40.0744C32.5828 40.0744 33.2399 39.4173 33.2399 38.6067C33.2399 37.796 32.5828 37.1389 31.7722 37.1389C30.9616 37.1389 30.3044 37.796 30.3044 38.6067C30.3044 39.4173 30.9616 40.0744 31.7722 40.0744Z" fill="#AECBE7"/>
<path d="M13.1724 28.8366C13.983 28.8366 14.6402 28.1795 14.6402 27.3689C14.6402 26.5583 13.983 25.9011 13.1724 25.9011C12.3618 25.9011 11.7047 26.5583 11.7047 27.3689C11.7047 28.1795 12.3618 28.8366 13.1724 28.8366Z" fill="#AECBE7"/>
<path d="M43.6834 4.4104C46.4622 8.81009 48.0938 14.006 48.0938 19.5938C48.0938 35.3329 35.3347 48.0938 19.5938 48.0938C14.006 48.0938 8.81009 46.4622 4.4104 43.6834C9.45846 51.6759 18.3487 57 28.5 57C44.2409 57 57 44.2392 57 28.5C57 18.3487 51.6759 9.45846 43.6834 4.4104Z" fill="#AECBE7"/>
<path d="M29.3621 53.2826C30.4482 53.2826 31.3286 52.4022 31.3286 51.3161C31.3286 50.23 30.4482 49.3496 29.3621 49.3496C28.2761 49.3496 27.3956 50.23 27.3956 51.3161C27.3956 52.4022 28.2761 53.2826 29.3621 53.2826Z" fill="#7E9FB8"/>
<path d="M17.5506 41.5174C19.1581 41.5174 20.4612 40.2143 20.4612 38.6068C20.4612 36.9994 19.1581 35.6963 17.5506 35.6963C15.9432 35.6963 14.6401 36.9994 14.6401 38.6068C14.6401 40.2143 15.9432 41.5174 17.5506 41.5174Z" fill="#AECBE7"/>
<path d="M46.7934 40.0514C48.4009 40.0514 49.704 38.7482 49.704 37.1408C49.704 35.5333 48.4009 34.2302 46.7934 34.2302C45.186 34.2302 43.8829 35.5333 43.8829 37.1408C43.8829 38.7482 45.186 40.0514 46.7934 40.0514Z" fill="#7E9FB8"/>
</svg>
