<svg width="64" height="64" viewBox="0 0 64 64" fill="none" xmlns="http://www.w3.org/2000/svg">
<path d="M32 52.175C43.1424 52.175 52.1752 43.1423 52.1752 31.9999C52.1752 20.8574 43.1424 11.8247 32 11.8247C20.8576 11.8247 11.8248 20.8574 11.8248 31.9999C11.8248 43.1423 20.8576 52.175 32 52.175Z" fill="#FEDB41"/>
<path d="M48.0627 32.8995C47.8246 32.8992 47.5964 32.8045 47.428 32.6362C47.2596 32.4678 47.1649 32.2395 47.1647 32.0015C47.1606 27.9808 45.5616 24.126 42.7185 21.2829C39.8755 18.4399 36.0207 16.8409 32 16.8368C31.7614 16.8368 31.5326 16.742 31.3639 16.5733C31.1952 16.4046 31.1004 16.1758 31.1004 15.9372C31.1004 15.6986 31.1952 15.4698 31.3639 15.3011C31.5326 15.1324 31.7614 15.0376 32 15.0376C36.4976 15.0424 40.8097 16.8311 43.99 20.0115C47.1703 23.1918 48.9591 27.5038 48.9639 32.0015C48.9637 32.1196 48.9403 32.2366 48.8949 32.3457C48.8496 32.4548 48.7831 32.5539 48.6994 32.6373C48.6157 32.7207 48.5164 32.7868 48.4072 32.8318C48.2979 32.8768 48.1809 32.8998 48.0627 32.8995Z" fill="#FEA832"/>
<path d="M32 7.71239C33.4656 7.71411 34.9281 7.84849 36.3695 8.11386C36.389 7.8337 36.4019 7.5484 36.4019 7.26156C36.4014 3.25141 32 0 32 0C32 0 27.5981 3.25141 27.5981 7.26156C27.5981 7.55046 27.6115 7.8337 27.631 8.11386C29.0723 7.84849 30.5346 7.71412 32 7.71239Z" fill="#FEA832"/>
<path d="M32 56.2877C33.4656 56.2859 34.928 56.1517 36.3695 55.8867C36.389 56.1664 36.4019 56.4496 36.4019 56.7385C36.4019 60.7482 32.0005 64.0001 32.0005 64.0001C32.0005 64.0001 27.5986 60.7492 27.5986 56.7385C27.5986 56.4496 27.612 56.1664 27.6315 55.8867C29.0726 56.1516 30.5347 56.2858 32 56.2877Z" fill="#FEA832"/>
<path d="M49.1741 14.8258C50.2088 15.8635 51.1477 16.9925 51.9793 18.199C52.1916 18.015 52.4009 17.8238 52.605 17.6197C55.441 14.7836 54.6272 9.37269 54.6272 9.37269C54.6272 9.37269 49.2163 8.56048 46.3802 11.395C46.1746 11.6006 45.9849 11.8062 45.8009 12.0206C47.0075 12.8522 48.1365 13.7911 49.1741 14.8258Z" fill="#FEA832"/>
<path d="M14.8259 49.174C15.8633 50.209 16.9924 51.1479 18.1991 51.9792C18.0151 52.1915 17.8239 52.4007 17.6198 52.6048C14.7837 55.4409 9.37277 54.6271 9.37277 54.6271C9.37277 54.6271 8.55902 49.2162 11.3951 46.3801C11.6007 46.1745 11.8063 45.9848 12.0207 45.8008C12.8522 47.0074 13.7911 48.1365 14.8259 49.174Z" fill="#FEA832"/>
<path d="M56.2876 32.0017C56.2858 33.4673 56.1516 34.9297 55.8867 36.3711C56.1663 36.3907 56.4495 36.404 56.7384 36.404C60.7481 36.404 64 32.0022 64 32.0022C64 32.0022 60.7486 27.6008 56.7384 27.6008C56.4495 27.6008 56.1663 27.6137 55.8867 27.6332C56.1515 29.0743 56.2857 30.5364 56.2876 32.0017Z" fill="#FEA832"/>
<path d="M7.71239 32.0017C7.71418 33.4673 7.84838 34.9297 8.11335 36.3712C7.8337 36.3907 7.54789 36.4041 7.26156 36.4041C3.25141 36.402 0 32.0017 0 32.0017C0 32.0017 3.25141 27.6003 7.26156 27.6003C7.55046 27.6003 7.8337 27.6132 8.11335 27.6327C7.84843 29.074 7.71423 30.5363 7.71239 32.0017Z" fill="#FEA832"/>
<path d="M49.1741 49.174C48.1365 50.2087 47.0075 51.1476 45.8009 51.9792C45.9849 52.1915 46.1762 52.4007 46.3802 52.6048C49.2163 55.4409 54.6272 54.6271 54.6272 54.6271C54.6272 54.6271 55.441 49.2162 52.605 46.3801C52.3993 46.1745 52.1937 45.9848 51.9793 45.8008C51.1479 47.0074 50.209 48.1365 49.1741 49.174Z" fill="#FEA832"/>
<path d="M14.8259 14.8258C13.7912 15.8635 12.8523 16.9925 12.0207 18.199C11.8084 18.015 11.5992 17.8238 11.3951 17.6197C8.55902 14.7836 9.37277 9.37269 9.37277 9.37269C9.37277 9.37269 14.7837 8.56048 17.6198 11.395C17.8254 11.6006 18.0151 11.8062 18.1991 12.0206C16.9925 12.8521 15.8635 13.791 14.8259 14.8258Z" fill="#FEA832"/>
</svg>
